<?xml version="1.0" encoding="utf-8" ?>
<svg baseProfile="tiny" height="256px" version="1.2" width="256px" xmlns="http://www.w3.org/2000/svg" xmlns:ev="http://www.w3.org/2001/xml-events" xmlns:xlink="http://www.w3.org/1999/xlink"><defs /><path d="M 124,205 L 124,207 L 125,208 L 125,215 L 126,216 L 126,218 L 127,219 L 127,232 L 128,232 L 128,219 L 129,218 L 129,216 L 130,215 L 130,208 L 131,207 L 131,205 L 130,206 L 130,207 L 129,208 L 129,214 L 128,215 L 127,215 L 126,214 L 126,207 Z" fill="black" /><path d="M 136,143 L 133,146 L 133,147 L 131,149 L 131,150 L 133,152 L 133,153 L 134,154 L 134,155 L 135,156 L 135,157 L 137,159 L 137,160 L 138,161 L 138,162 L 139,163 L 139,164 L 141,166 L 141,167 L 143,169 L 143,170 L 145,172 L 145,173 L 148,176 L 149,176 L 150,177 L 153,177 L 154,176 L 155,176 L 156,175 L 156,174 L 158,172 L 158,166 L 157,165 L 157,164 L 155,162 L 155,161 L 146,152 L 146,151 L 145,151 L 144,150 L 144,149 L 143,149 L 142,148 L 142,147 L 138,143 Z" fill="black" /><path d="M 56,142 L 56,143 L 55,144 L 55,145 L 54,146 L 54,155 L 55,156 L 55,157 L 56,157 L 57,158 L 59,158 L 60,159 L 60,165 L 58,167 L 56,167 L 55,166 L 55,165 L 56,164 L 55,163 L 55,167 L 57,169 L 59,169 L 59,168 L 60,167 L 60,165 L 61,164 L 61,146 L 60,145 L 60,144 L 59,143 L 59,142 Z" fill="black" /><path d="M 49,142 L 46,145 L 46,146 L 47,146 L 48,147 L 48,168 L 49,169 Z" fill="black" /><path d="M 201,140 L 201,141 L 200,142 L 200,146 L 199,147 L 199,151 L 200,152 L 200,154 L 202,156 L 203,156 L 204,155 L 205,156 L 205,162 L 204,163 L 204,164 L 203,165 L 202,165 L 201,164 L 201,161 L 200,161 L 200,164 L 201,165 L 201,166 L 202,167 L 203,167 L 205,165 L 205,163 L 206,162 L 206,153 L 207,152 L 206,151 L 206,143 L 205,142 L 205,141 L 204,140 Z" fill="black" /><path d="M 190,140 L 190,142 L 189,143 L 189,149 L 190,150 L 190,143 L 192,141 L 194,143 L 194,151 L 193,152 L 193,156 L 192,157 L 192,158 L 191,159 L 191,161 L 190,162 L 190,163 L 189,164 L 189,166 L 190,167 L 194,167 L 195,166 L 195,165 L 192,165 L 191,164 L 191,162 L 192,161 L 192,160 L 193,159 L 193,157 L 194,156 L 194,154 L 195,153 L 195,142 L 193,140 Z" fill="black" /><path d="M 123,68 L 123,94 L 124,94 L 124,83 L 125,82 L 126,82 L 127,83 L 127,89 L 128,90 L 128,91 L 129,92 L 129,94 L 130,94 L 130,68 L 129,68 L 129,78 L 127,80 L 126,79 L 126,72 L 125,71 L 125,69 L 124,68 Z" fill="black" /><path d="M 214,33 L 210,37 L 210,38 L 206,42 L 206,43 L 202,47 L 202,48 L 201,49 L 200,49 L 200,50 L 196,54 L 196,55 L 192,59 L 192,60 L 187,65 L 187,66 L 183,70 L 183,71 L 177,77 L 177,78 L 173,82 L 173,83 L 167,89 L 167,90 L 161,96 L 161,97 L 155,103 L 155,104 L 149,110 L 149,111 L 148,112 L 147,112 L 147,113 L 141,119 L 141,120 L 133,128 L 133,129 L 132,130 L 131,130 L 131,131 L 130,132 L 128,132 L 120,124 L 120,123 L 119,123 L 118,122 L 118,121 L 112,115 L 112,114 L 111,114 L 110,113 L 110,112 L 106,108 L 106,107 L 105,107 L 104,106 L 104,105 L 100,101 L 100,100 L 99,100 L 98,99 L 98,98 L 94,94 L 94,93 L 93,93 L 92,92 L 92,91 L 88,87 L 88,86 L 84,82 L 84,81 L 79,76 L 79,75 L 75,71 L 75,70 L 70,65 L 70,64 L 65,59 L 65,58 L 61,54 L 61,53 L 56,48 L 56,47 L 55,46 L 54,46 L 30,70 L 30,71 L 28,73 L 29,74 L 29,75 L 31,77 L 31,78 L 34,81 L 34,82 L 38,86 L 38,87 L 42,91 L 42,92 L 48,98 L 48,99 L 54,105 L 54,106 L 55,106 L 56,107 L 56,108 L 77,129 L 78,129 L 83,134 L 84,134 L 85,135 L 85,136 L 86,136 L 89,139 L 90,139 L 94,143 L 96,143 L 96,142 L 98,140 L 98,139 L 100,137 L 100,136 L 102,134 L 102,133 L 103,132 L 103,131 L 104,130 L 104,129 L 106,127 L 106,126 L 108,124 L 109,124 L 110,123 L 111,123 L 112,124 L 113,124 L 117,128 L 117,129 L 121,133 L 121,134 L 123,136 L 123,139 L 122,140 L 122,141 L 121,142 L 120,142 L 120,143 L 109,154 L 109,155 L 108,156 L 107,156 L 107,157 L 106,158 L 105,158 L 105,159 L 101,163 L 101,164 L 100,165 L 100,167 L 99,168 L 99,171 L 100,172 L 100,173 L 103,176 L 104,176 L 105,177 L 107,177 L 108,176 L 110,176 L 112,174 L 112,173 L 114,171 L 114,170 L 116,168 L 116,167 L 118,165 L 118,163 L 120,161 L 120,160 L 122,158 L 122,156 L 124,154 L 124,153 L 126,151 L 126,150 L 128,148 L 128,146 L 130,144 L 130,143 L 132,141 L 132,140 L 134,138 L 134,137 L 136,135 L 136,134 L 138,132 L 138,131 L 142,127 L 142,126 L 143,125 L 144,125 L 145,124 L 146,124 L 147,123 L 148,124 L 149,124 L 153,128 L 153,129 L 154,130 L 154,131 L 155,132 L 155,133 L 157,135 L 157,136 L 158,137 L 158,138 L 159,139 L 160,139 L 170,129 L 170,128 L 171,127 L 172,127 L 172,126 L 180,118 L 180,117 L 184,113 L 184,112 L 188,108 L 188,107 L 190,105 L 190,104 L 193,101 L 193,100 L 195,98 L 195,97 L 196,96 L 196,95 L 198,93 L 198,92 L 199,91 L 199,90 L 200,89 L 200,88 L 201,87 L 201,86 L 202,85 L 202,84 L 203,83 L 203,82 L 204,81 L 204,80 L 205,79 L 205,77 L 206,76 L 206,75 L 207,74 L 207,72 L 208,71 L 208,70 L 209,69 L 209,66 L 210,65 L 210,63 L 211,62 L 211,58 L 212,57 L 212,54 L 213,53 L 213,46 L 214,45 L 214,39 L 215,38 L 215,33 Z" fill="black" /></svg>